<svg width="99" height="99" viewBox="0 0 99 99" fill="none" xmlns="http://www.w3.org/2000/svg">
<path fill-rule="evenodd" clip-rule="evenodd" d="M6.954 7.47L0 14.478L17.47 31.97L34.941 49.462L17.47 66.954L0 84.446L6.954 91.454C10.779 95.308 14.29 98.462 14.757 98.462C15.224 98.462 23.215 90.699 32.515 81.212L49.423 63.962L66.935 81.443L84.446 98.924L91.454 91.97C95.308 88.145 98.462 84.623 98.462 84.142C98.462 83.662 90.699 75.663 81.212 66.366L63.962 49.462L81.212 32.558C90.7 23.261 98.462 15.262 98.462 14.782C98.462 14.301 95.308 10.779 91.454 6.954L84.446 0L66.935 17.481L49.423 34.962L32.515 17.712C23.215 8.225 15.224 0.462 14.757 0.462C14.29 0.462 10.779 3.616 6.954 7.47Z" fill="#0b2766"/>
</svg>
