<svg width="161" height="160" viewBox="0 0 161 160" fill="none" xmlns="http://www.w3.org/2000/svg">
<path fill-rule="evenodd" clip-rule="evenodd" d="M63.8097 1.16464C36.0577 7.41164 13.6548 26.7876 4.75575 52.2396C-11.0002 97.3036 13.6777 144.405 59.8097 157.321C64.7667 158.709 69.7528 159.133 80.8098 159.106C94.3838 159.074 95.9158 158.869 104.81 155.9C118.298 151.396 125.84 146.64 136.872 135.679C145.357 127.249 147.01 124.996 151.547 115.679C158.327 101.756 160.164 94.0786 160.164 79.6786C160.164 65.2786 158.327 57.6016 151.547 43.6786C147.01 34.3616 145.357 32.1086 136.872 23.6786C125.77 12.6486 118.18 7.88365 104.81 3.55165C96.7758 0.948645 93.3808 0.413645 82.8098 0.0876447C74.1878 -0.178355 68.2927 0.155644 63.8097 1.16464ZM97.8098 17.2426C114.407 22.1576 130.091 35.3336 137.688 50.7436C150.43 76.5916 145.784 104.777 125.42 125.171C111.761 138.849 98.9838 144.144 79.8098 144.071C69.9448 144.033 67.1738 143.636 60.3198 141.279C49.7508 137.645 41.6677 132.608 34.3267 125.082C27.0117 117.581 21.4897 108.528 18.5278 99.1786C15.3517 89.1556 15.3517 70.2016 18.5278 60.1786C25.6807 37.6036 45.8208 19.9056 69.1318 15.7096C76.1328 14.4496 91.0738 15.2486 97.8098 17.2426ZM73.1158 27.0916C70.7138 29.1576 70.3098 30.2506 70.3098 34.6786C70.3098 39.1066 70.7138 40.1996 73.1158 42.2656C81.1768 49.1986 93.1318 41.2446 89.8038 31.1616C87.6768 24.7146 78.4848 22.4736 73.1158 27.0916ZM43.1157 42.0916C40.7137 44.1576 40.3097 45.2506 40.3097 49.6786C40.3097 54.1066 40.7137 55.1996 43.1157 57.2656C51.1767 64.1986 63.1318 56.2446 59.8038 46.1616C57.6768 39.7146 48.4847 37.4736 43.1157 42.0916ZM103.143 41.1576C101.858 42.0586 96.8018 52.2366 90.2208 67.1726L79.4108 91.7086L75.6558 92.7196C64.5128 95.7206 59.1648 108.421 64.8128 118.47C69.1328 126.157 80.6538 129.511 88.5078 125.368C96.7208 121.036 100.219 109.914 95.9478 101.719L93.8438 97.6826L104.868 72.7696C116.542 46.3896 117.033 44.3486 112.473 41.1556C109.778 39.2676 105.84 39.2686 103.143 41.1576ZM28.1158 72.0916C25.7138 74.1576 25.3098 75.2506 25.3098 79.6786C25.3098 84.1066 25.7138 85.1996 28.1158 87.2656C33.4848 91.8836 42.6768 89.6426 44.8038 83.1956C48.1318 73.1126 36.1768 65.1586 28.1158 72.0916ZM118.116 72.0916C115.714 74.1576 115.31 75.2506 115.31 79.6786C115.31 84.1066 115.714 85.1996 118.116 87.2656C126.177 94.1986 138.132 86.2446 134.804 76.1616C132.677 69.7146 123.485 67.4736 118.116 72.0916Z" fill="white"/>
</svg>
