<svg width="161" height="160" viewBox="0 0 161 160" fill="none" xmlns="http://www.w3.org/2000/svg">
<path fill-rule="evenodd" clip-rule="evenodd" d="M84.775 39.75L45.06 79.5L42.513 99.399C41.111 110.344 40.161 119.495 40.402 119.735C40.642 119.975 49.72 119.05 60.576 117.678L80.313 115.184L120.4 75.097L160.488 35.009L143.005 17.505C133.389 7.877 125.29 0 125.006 0C124.723 0 106.619 17.887 84.775 39.75ZM0 90V160H70.5H141V125V90H133H125V117.5V145H70.5H16V90V35H43.5H71V27.5V20H35.5H0V90ZM131.997 28.497L138.437 34.995L132.999 40.501L127.561 46.007L121.281 39.783C117.826 36.359 115 33.11 115 32.563C115 31.522 124.007 22 124.991 22C125.303 22 128.456 24.924 131.997 28.497ZM110.01 50.51L116.463 57.02L94.576 78.924L72.689 100.828L65.785 101.522C61.988 101.903 58.67 102.003 58.411 101.744C58.151 101.485 58.439 97.949 59.049 93.886L60.159 86.5L81.321 65.25C92.96 53.563 102.724 44 103.02 44C103.316 44 106.461 46.93 110.01 50.51Z" fill="white"/>
</svg>
