<svg width="141" height="160" viewBox="0 0 141 160" fill="none" xmlns="http://www.w3.org/2000/svg">
<path fill-rule="evenodd" clip-rule="evenodd" d="M57.1229 1.88656C36.5659 8.68056 25.1029 31.2146 31.6059 52.0516C40.4189 80.2866 77.3999 89.2246 98.4239 68.2006C118.138 48.4866 112.242 15.5146 86.8809 3.64656C78.0819 -0.470436 66.3559 -1.16444 57.1229 1.88656ZM81.9569 18.7266C98.5049 28.0766 98.7699 51.4996 82.4319 60.8306C75.4259 64.8316 70.2769 65.5296 63.1129 63.4466C45.3079 58.2706 39.6079 35.9016 52.7349 22.7186C60.9529 14.4666 71.7939 12.9856 81.9569 18.7266ZM15.7329 107.657C13.5459 114.669 9.26089 128.56 6.20989 138.524C3.15789 148.489 0.379888 157.376 0.0358881 158.274C-0.540112 159.775 5.10288 159.907 69.8419 159.907H140.275L130.273 127.407L120.272 94.9066H69.9899H19.7089L15.7329 107.657ZM112.152 121.657C114.131 128.12 116.592 135.995 117.621 139.157L119.492 144.907H69.9499C30.7289 144.907 20.5079 144.647 20.8859 143.657C21.1489 142.97 23.4709 135.657 26.0469 127.407C28.6219 119.157 30.9159 111.845 31.1449 111.157C31.4679 110.186 40.1479 109.907 70.0569 109.907H108.554L112.152 121.657Z" fill="white"/>
</svg>
