<svg width="181" height="160" viewBox="0 0 181 160" fill="none" xmlns="http://www.w3.org/2000/svg">
<path fill-rule="evenodd" clip-rule="evenodd" d="M51.0885 2.127C46.3655 4.465 42.7755 8.664 41.0225 13.898C40.3135 16.016 39.8845 25.345 39.8845 38.648V59.999H47.8845H55.8845V38.534C55.8845 13.377 55.0335 14.999 68.2305 14.999H76.7075L77.0465 25.849C77.2735 33.143 77.8345 37.239 78.7565 38.349C79.8675 39.684 82.0695 39.999 90.3065 39.999C96.8895 39.999 100.909 39.575 101.685 38.799C102.477 38.007 102.885 33.755 102.885 26.299V14.999H112.314C119.552 14.999 122.107 15.364 123.314 16.57C124.642 17.899 124.885 21.378 124.885 39.07V59.999H132.967H141.049L140.715 37.249C140.352 12.522 140.121 11.403 134.224 5.80201C128.293 0.168006 126.993 -0.000995715 89.6665 4.28548e-06C56.7185 0.00100429 55.2175 0.0830033 51.0885 2.127ZM11.0885 72.127C6.06454 74.614 2.54454 78.895 0.918539 84.499C0.122539 87.243 -0.143461 97.45 0.0715385 116.999C0.427539 149.452 0.722539 150.786 8.80754 156.499L13.0535 159.499L48.2185 159.788C78.4945 160.037 83.9665 159.855 87.5705 158.48C92.2965 156.677 98.4446 150.443 99.6096 146.274C100.614 142.68 100.623 87.351 99.6205 83.767C98.5065 79.79 93.0095 73.961 88.3935 71.864C84.7665 70.217 81.0925 70.041 49.8845 70.022C16.6905 70.001 15.2215 70.081 11.0885 72.127ZM105.88 75.749C107.498 78.911 109.047 82.286 109.322 83.249C109.674 84.48 110.843 84.999 113.265 84.999H116.708L117.047 95.849C117.274 103.143 117.835 107.239 118.757 108.349C119.868 109.684 122.07 109.999 130.307 109.999C136.89 109.999 140.909 109.575 141.685 108.799C142.477 108.007 142.885 103.755 142.885 96.299V84.999H152.314C159.552 84.999 162.107 85.364 163.314 86.57C165.674 88.931 165.674 141.067 163.314 143.428C161.966 144.775 158.049 144.999 135.782 144.999C111.916 144.999 109.782 145.14 109.322 146.749C109.047 147.712 107.498 151.087 105.88 154.249L102.938 159.999L133.662 159.977C161.215 159.957 164.799 159.767 168.394 158.134C173.01 156.037 178.507 150.208 179.621 146.231C180.617 142.67 180.617 87.328 179.621 83.767C178.507 79.79 173.01 73.961 168.394 71.864C164.799 70.231 161.215 70.041 133.662 70.021L102.938 69.999L105.88 75.749ZM37.0465 95.849C37.2735 103.143 37.8345 107.239 38.7565 108.349C39.8675 109.684 42.0695 109.999 50.3065 109.999C56.8895 109.999 60.9085 109.575 61.6845 108.799C62.4765 108.007 62.8845 103.755 62.8845 96.299V84.999H72.3135C79.5515 84.999 82.1065 85.364 83.3135 86.57C85.6735 88.931 85.6735 141.067 83.3135 143.428C81.9525 144.789 77.5905 144.999 50.7475 144.999C31.2945 144.999 19.0325 144.614 17.8185 143.964C15.9775 142.978 15.8845 141.589 15.8845 115.014C15.8845 89.483 16.0335 87.011 17.6345 86.079C18.5975 85.518 23.2825 85.046 28.0465 85.029L36.7075 84.999L37.0465 95.849Z" fill="white"/>
</svg>
