<svg width="164" height="140" viewBox="0 0 164 140" fill="none" xmlns="http://www.w3.org/2000/svg">
<path fill-rule="evenodd" clip-rule="evenodd" d="M0 70V140H30.5H61V130V120H41H21V70V20H41H61V10V0H30.5H0V70ZM102.493 23.007L95.539 30.014L110.507 45.007L125.475 60H87.737H50V70V80H87.737H125.475L110.498 95.002L95.521 110.004L102.684 117.167L109.847 124.33L115.674 119.269C124.816 111.327 164 71.286 164 69.886C164 68.461 111.782 16 110.364 16C109.859 16 106.317 19.153 102.493 23.007Z" fill="white"/>
</svg>
