<svg width="167" height="159" viewBox="0 0 167 159" fill="none" xmlns="http://www.w3.org/2000/svg">
<path fill-rule="evenodd" clip-rule="evenodd" d="M79.1391 5.30522C77.2221 8.77322 71.2661 20.0822 65.9021 30.4362C59.3841 43.0192 55.444 49.5492 54.021 50.1282C52.849 50.6042 41.0911 52.8292 27.8911 55.0722C14.6911 57.3152 2.64705 59.4032 1.12705 59.7122C-1.52295 60.2522 -0.824947 61.1172 18.1271 80.7732C28.9971 92.0472 38.012 101.797 38.16 102.441C38.308 103.084 36.6491 115.975 34.4721 131.089C32.2961 146.202 30.6641 158.716 30.8451 158.897C31.0261 159.078 41.9101 153.861 55.0331 147.303C68.1551 140.745 79.8441 135.082 81.0081 134.719C82.5421 134.241 90.1911 137.493 108.758 146.517C132.536 158.072 134.391 158.808 134.391 156.679C134.391 155.417 132.816 143.461 130.891 130.11C128.966 116.759 127.391 104.815 127.391 103.567C127.391 101.968 133.195 95.3502 147.027 81.1732C157.827 70.1052 166.417 60.8032 166.117 60.5022C165.816 60.2022 153.085 57.7462 137.826 55.0452C122.566 52.3442 110.001 50.0162 109.902 49.8722C109.804 49.7282 104.171 39.0352 97.3851 26.1102C90.5981 13.1852 84.5011 1.79822 83.8351 0.805224C82.7551 -0.807776 82.2521 -0.325776 79.1391 5.30522ZM94.539 54.3602C97.309 59.7222 99.884 64.1102 100.259 64.1102C101.09 64.1102 128.746 68.8862 132.761 69.7232L135.631 70.3222L128.756 77.4662C124.975 81.3952 119.28 87.3392 116.101 90.6752L110.32 96.7402L112.809 114.138C114.178 123.707 115.163 131.671 114.998 131.837C114.832 132.002 107.766 128.764 99.2941 124.64C90.8221 120.516 83.3231 117.135 82.6291 117.126C81.9341 117.117 74.574 120.512 66.272 124.67C57.97 128.828 50.9691 132.021 50.7141 131.766C50.4591 131.511 51.3901 123.545 52.7831 114.064L55.3161 96.8262L42.9191 83.7182C31.6841 71.8382 30.7271 70.5432 32.7071 69.8922C33.9081 69.4972 41.8541 68.0092 50.3651 66.5852C58.8751 65.1612 65.8991 63.9092 65.9741 63.8032C66.0481 63.6972 69.8311 56.4772 74.3811 47.7592L82.6541 31.9082L86.078 38.2592C87.96 41.7522 91.768 48.9982 94.539 54.3602Z" fill="#0b2766"/>
</svg>
