<svg width="199" height="160" viewBox="0 0 199 160" fill="none" xmlns="http://www.w3.org/2000/svg">
<path fill-rule="evenodd" clip-rule="evenodd" d="M37.9622 0.503363C36.5832 0.954363 34.0622 2.04437 32.3602 2.92437C30.6582 3.80537 27.7922 6.20336 25.9912 8.25336C24.1912 10.3044 22.0992 13.4624 21.3432 15.2724C20.5872 17.0824 19.9682 21.2924 19.9682 24.6274C19.9682 27.9624 20.5872 32.1724 21.3432 33.9824C22.0992 35.7924 24.1942 38.9544 25.9982 41.0094C27.8022 43.0644 30.9672 45.6064 33.0322 46.6594C35.0962 47.7124 38.5942 48.8634 40.8062 49.2174C43.0182 49.5714 47.1012 49.3154 49.8792 48.6484C52.6582 47.9824 56.7092 46.1484 58.8832 44.5744C61.0562 42.9994 64.0202 39.6894 65.4692 37.2164C67.0032 34.5984 68.3292 30.5094 68.6452 27.4244C68.9442 24.5114 68.6762 20.2334 68.0512 17.9194C67.4252 15.6054 65.4592 11.8044 63.6822 9.47436C61.9042 7.14336 58.3852 4.17437 55.8612 2.87537C53.3382 1.57737 48.8422 0.327365 45.8712 0.0983647C42.8992 -0.129635 39.3402 0.0523635 37.9622 0.503363ZM152.962 0.503363C151.583 0.954363 149.062 2.04437 147.36 2.92437C145.658 3.80537 142.792 6.20336 140.991 8.25336C139.191 10.3044 137.099 13.4624 136.343 15.2724C135.587 17.0824 134.968 21.2924 134.968 24.6274C134.968 27.9624 135.587 32.1724 136.343 33.9824C137.099 35.7924 139.194 38.9544 140.998 41.0094C142.802 43.0644 145.967 45.6064 148.032 46.6594C150.096 47.7124 153.594 48.8634 155.806 49.2174C158.018 49.5714 162.101 49.3154 164.879 48.6484C167.658 47.9824 171.709 46.1484 173.883 44.5744C176.056 42.9994 179.02 39.6894 180.469 37.2164C182.003 34.5984 183.329 30.5094 183.645 27.4244C183.944 24.5114 183.676 20.2334 183.051 17.9194C182.425 15.6054 180.459 11.8044 178.682 9.47436C176.904 7.14336 173.385 4.17437 170.861 2.87537C168.338 1.57737 163.842 0.327365 160.871 0.0983647C157.899 -0.129635 154.34 0.0523635 152.962 0.503363ZM92.4682 40.5074C90.8182 40.9424 87.6372 42.2404 85.4002 43.3914C83.1622 44.5414 79.7002 47.2884 77.7062 49.4954C75.7122 51.7024 73.2682 54.9974 72.2752 56.8174C70.8922 59.3514 70.4682 62.3544 70.4682 69.6274C70.4682 76.9004 70.8922 79.9034 72.2752 82.4374C73.2682 84.2574 75.7152 87.5554 77.7112 89.7644C79.7082 91.9744 83.6202 94.9574 86.4052 96.3944C90.4882 98.4994 92.9202 99.0174 98.9682 99.0664C105.228 99.1174 107.407 98.6664 112.15 96.3374C115.274 94.8024 119.209 91.9774 120.893 90.0594C122.578 88.1414 124.966 84.6714 126.2 82.3494C128.018 78.9284 128.444 76.5144 128.444 69.6274C128.444 62.7404 128.018 60.3264 126.2 56.9054C124.966 54.5834 122.578 51.1134 120.893 49.1954C119.209 47.2774 115.412 44.5244 112.456 43.0774C109.109 41.4404 104.89 40.3094 101.275 40.0814C98.0812 39.8794 94.1182 40.0714 92.4682 40.5074ZM107.731 57.2994C109.168 58.3724 111.212 60.4124 112.272 61.8324C113.598 63.6084 114.199 66.0384 114.199 69.6274C114.199 73.2164 113.598 75.6464 112.272 77.4224C111.212 78.8424 109.186 80.8684 107.77 81.9254C106.355 82.9824 103.199 84.0724 100.758 84.3474C97.4492 84.7204 95.2392 84.2964 92.0692 82.6794C88.9912 81.1084 87.2922 79.3534 85.9152 76.3184C84.8682 74.0134 84.0122 71.0024 84.0122 69.6274C84.0122 68.2524 84.8672 65.2434 85.9132 62.9414C87.1892 60.1304 89.0712 58.0724 91.6412 56.6784C94.4362 55.1614 96.7692 54.7024 100.292 54.9744C103.004 55.1844 106.262 56.2024 107.731 57.2994ZM24.7022 60.7154C22.6312 61.2034 19.2332 62.4714 17.1512 63.5344C15.0692 64.5964 11.5042 67.3264 9.22919 69.6014C6.95419 71.8764 4.06519 75.8504 2.80919 78.4324C1.36119 81.4074 0.384191 85.5534 0.141191 89.7464C-0.207809 95.7674 -0.0318089 96.5134 2.08519 97.9964C4.12619 99.4264 8.59019 99.6274 38.2942 99.6274H72.1752L68.9402 95.9424C67.1612 93.9164 64.6482 89.9784 63.3572 87.1924C62.0652 84.4064 60.5002 79.6814 59.8792 76.6924C59.2582 73.7034 58.9682 69.3174 59.2362 66.9454L59.7222 62.6314L54.6632 61.1294C51.4242 60.1674 45.8052 59.6634 39.0362 59.7274C33.2242 59.7834 26.7742 60.2274 24.7022 60.7154ZM146.468 60.2994C145.368 60.5414 143.19 61.2354 141.628 61.8424C139.179 62.7924 138.852 63.3704 139.254 66.0364C139.51 67.7364 139.361 71.7114 138.921 74.8694C138.482 78.0274 136.97 83.1284 135.561 86.2054C134.153 89.2814 131.605 93.5604 129.9 95.7134L126.8 99.6274H160.884C194.315 99.6274 195.009 99.5864 197.095 97.5004C198.937 95.6584 199.151 94.5774 198.685 89.4434C198.376 86.0334 197.026 81.2214 195.507 78.1184C194.02 75.0794 190.663 70.7404 187.821 68.1854C184.234 64.9604 180.892 63.0664 176.266 61.6374C171.318 60.1094 167.204 59.6554 159.113 59.7434C153.258 59.8074 147.568 60.0574 146.468 60.2994ZM72.0132 110.719C69.5632 111.2 65.2372 112.729 62.3992 114.117C59.5612 115.505 54.9222 118.959 52.0892 121.792C49.2562 124.625 45.5182 129.826 43.7842 133.35C41.3162 138.363 40.5342 141.428 40.1882 147.442C39.7872 154.412 39.9522 155.313 41.9622 157.127C44.1222 159.076 45.5832 159.127 99.6612 159.127H155.145L157.056 156.766C158.257 155.283 158.968 152.851 158.968 150.226C158.968 147.928 158.271 143.37 157.418 140.097C156.566 136.824 154.516 132.039 152.863 129.463C151.21 126.888 147.898 122.974 145.503 120.766C143.108 118.558 138.97 115.655 136.308 114.314C133.646 112.973 129.083 111.37 126.169 110.751C123.047 110.089 111.747 109.672 98.6692 109.737C86.4582 109.797 74.4632 110.239 72.0132 110.719ZM129.596 127.335C131.867 128.55 135.533 131.598 137.744 134.11C139.955 136.621 142.056 139.843 142.414 141.27C142.772 142.696 142.889 144.04 142.673 144.256C142.457 144.472 122.623 144.531 98.5972 144.388L54.9142 144.127L57.5952 138.748C59.3562 135.215 61.7892 132.298 64.6882 130.248C67.1142 128.531 70.5332 126.584 72.2842 125.921C74.5182 125.075 82.9272 124.777 100.468 124.921C124.13 125.116 125.689 125.245 129.596 127.335Z" fill="black"/>
</svg>
