<svg width="181" height="120" viewBox="0 0 181 120" fill="none" xmlns="http://www.w3.org/2000/svg">
<path fill-rule="evenodd" clip-rule="evenodd" d="M0 60V120H90.5H181V60V0H90.5H0V60ZM145.851 19.732C146.547 22.334 148.203 25.888 149.531 27.63C152.132 31.039 159.27 35 162.816 35H165V60V85H162.816C159.27 85 152.132 88.961 149.531 92.37C148.203 94.112 146.547 97.666 145.851 100.268L144.585 105H90.312H36.038L35.438 102.25C33.627 93.954 28.046 87.807 20.49 85.786L16 84.585V60V35.415L20.49 34.214C28.046 32.193 33.627 26.046 35.438 17.75L36.038 15H90.312H144.585L145.851 19.732ZM80.703 31.391C63.07 37.918 55.324 56.878 63.48 73.548C66.331 79.376 70.777 83.782 77.278 87.222C83.385 90.454 96.566 90.453 103.127 87.22C126.083 75.91 126.083 44.004 103.127 32.801C97.42 30.016 86.307 29.317 80.703 31.391Z" fill="white"/>
</svg>
